<?xml version="1.0" encoding="UTF-8" standalone="no"?>
<!-- Generator: Adobe Illustrator 16.0.0, SVG Export Plug-In . SVG Version: 6.00 Build 0)  -->

<svg
   xmlns:dc="http://purl.org/dc/elements/1.1/"
   xmlns:cc="http://creativecommons.org/ns#"
   xmlns:rdf="http://www.w3.org/1999/02/22-rdf-syntax-ns#"
   xmlns:svg="http://www.w3.org/2000/svg"
   xmlns="http://www.w3.org/2000/svg"
   xmlns:sodipodi="http://sodipodi.sourceforge.net/DTD/sodipodi-0.dtd"
   xmlns:inkscape="http://www.inkscape.org/namespaces/inkscape"
   version="1.1"
   id="Layer_1"
   x="0px"
   y="0px"
   width="550.271"
   height="550.27301"
   viewBox="0 0 550.271 550.27301"
   enable-background="new 0 0 1000 800"
   xml:space="preserve"
   inkscape:version="0.48.4 r9939"
   sodipodi:docname="logo-placetag.svg"><metadata
     id="metadata33"><rdf:RDF><cc:Work
         rdf:about=""><dc:format>image/svg+xml</dc:format><dc:type
           rdf:resource="http://purl.org/dc/dcmitype/StillImage" /></cc:Work></rdf:RDF></metadata><defs
     id="defs31" /><sodipodi:namedview
     pagecolor="#ffffff"
     bordercolor="#666666"
     borderopacity="1"
     objecttolerance="10"
     gridtolerance="10"
     guidetolerance="10"
     inkscape:pageopacity="0"
     inkscape:pageshadow="2"
     inkscape:window-width="1280"
     inkscape:window-height="749"
     id="namedview29"
     showgrid="false"
     inkscape:zoom="0.295"
     inkscape:cx="-296.22369"
     inkscape:cy="395.204"
     inkscape:window-x="0"
     inkscape:window-y="25"
     inkscape:window-maximized="1"
     inkscape:current-layer="Layer_1"
     fit-margin-top="0"
     fit-margin-left="0"
     fit-margin-right="0"
     fit-margin-bottom="0" /><rect
     x="-240.006"
     y="-260.319"
     display="none"
     width="1019.949"
     height="829.45801"
     id="rect3"
     style="fill:#5e93a1;display:none" /><path
     d="M 275.136,0 C 123.181,0 0,123.183 0,275.138 0,427.09 123.181,550.273 275.136,550.273 427.089,550.273 550.271,427.09 550.271,275.138 550.271,123.183 427.089,0 275.136,0 z m 51.716,392.019 c -51.42,44.796 -51.42,44.796 -51.42,44.796 0,0 0,0 -55.912,-47.146 -36.283,-30.596 -83.962,-83.704 -83.962,-125.883 0,-74.271 62.491,-134.477 139.579,-134.477 77.088,0 139.575,60.208 139.575,134.477 0.003,41.78 -52.445,97.383 -87.86,128.233 z"
     id="path27"
     style="fill:#525c84;fill-opacity:1"
     inkscape:connector-curvature="0" /></svg>